<svg width="40" height="40" viewBox="0 0 40 40" fill="none" xmlns="http://www.w3.org/2000/svg">
<path d="M34.2835 7.06525C37.5375 10.3192 39.551 14.8137 39.551 19.7755C39.551 24.7374 37.5375 29.2318 34.2835 32.4858L31.7487 29.9509C34.3555 27.3621 35.9555 23.7666 35.9555 19.7755C35.9555 15.8024 34.3555 12.1889 31.7487 9.60011L34.2835 7.06525ZM29.1958 12.153C31.1554 14.1125 32.3599 16.8092 32.3599 19.7755C32.3599 22.7418 31.1554 25.4385 29.1958 27.3981L26.661 24.8632C27.9554 23.5688 28.7644 21.771 28.7644 19.7755C28.7644 17.78 27.9554 15.9822 26.661 14.6878L29.1958 12.153ZM21.5733 16.18C22.5269 16.18 23.4414 16.5588 24.1157 17.2331C24.79 17.9074 25.1688 18.8219 25.1688 19.7755C25.1688 20.7291 24.79 21.6437 24.1157 22.3179C23.4414 22.9922 22.5269 23.3711 21.5733 23.3711C20.6197 23.3711 19.7051 22.9922 19.0308 22.3179C18.3566 21.6437 17.9777 20.7291 17.9777 19.7755C17.9777 18.8219 18.3566 17.9074 19.0308 17.2331C19.7051 16.5588 20.6197 16.18 21.5733 16.18ZM18.8766 0C20.0686 0 21.2118 0.473519 22.0547 1.31639C22.8975 2.15926 23.3711 3.30244 23.3711 4.49443V12.5844H19.7755V5.39332H3.59555V32.3599H19.7755V26.9666H23.3711V35.0566C23.3711 36.2486 22.8975 37.3918 22.0547 38.2346C21.2118 39.0775 20.0686 39.551 18.8766 39.551H4.49443C3.30244 39.551 2.15926 39.0775 1.31639 38.2346C0.473519 37.3918 0 36.2486 0 35.0566V4.49443C0 3.30244 0.473519 2.15926 1.31639 1.31639C2.15926 0.473519 3.30244 0 4.49443 0H18.8766Z" fill="#D0D0D0"/>
</svg>
