<svg width="40" height="36" viewBox="0 0 40 36" fill="none" xmlns="http://www.w3.org/2000/svg">
<path d="M12 20C8.55079 20 5.6346 22.2009 4.5109 25.2634C4.35424 25.6904 3.96277 26 3.50797 26H2C0.895431 26 0 26.8954 0 28C0 29.1046 0.895431 30 2 30H3.50797C3.96277 30 4.35424 30.3096 4.5109 30.7366C5.6346 33.7991 8.55079 36 12 36C15.4492 36 18.3654 33.7991 19.4891 30.7366C19.6458 30.3096 20.0372 30 20.492 30H38C39.1046 30 40 29.1046 40 28C40 26.8954 39.1046 26 38 26H20.492C20.0372 26 19.6458 25.6904 19.4891 25.2634C18.3654 22.2009 15.4492 20 12 20ZM12 32C9.8 32 8 30.2 8 28C8 25.8 9.8 24 12 24C14.2 24 16 25.8 16 28C16 30.2 14.2 32 12 32ZM36.492 6C36.0372 6 35.6458 5.69038 35.4891 5.26341C34.3654 2.20086 31.4492 0 28 0C24.5508 0 21.6346 2.20086 20.5109 5.26341C20.3542 5.69038 19.9628 6 19.508 6H2C0.895427 6 0 6.89543 0 8C0 9.10457 0.895431 10 2 10H19.508C19.9628 10 20.3542 10.3096 20.5109 10.7366C21.6346 13.7991 24.5508 16 28 16C31.4492 16 34.3654 13.7991 35.4891 10.7366C35.6458 10.3096 36.0372 10 36.492 10H38C39.1046 10 40 9.10457 40 8C40 6.89543 39.1046 6 38 6H36.492ZM28 12C25.8 12 24 10.2 24 8C24 5.8 25.8 4 28 4C30.2 4 32 5.8 32 8C32 10.2 30.2 12 28 12Z" fill="#D0D0D0"/>
</svg>
