<svg width="30" height="30" viewBox="0 0 30 30" fill="none" xmlns="http://www.w3.org/2000/svg">
<path d="M11.25 14.6875C10.8356 14.6875 10.4382 14.8521 10.1451 15.1451C9.85212 15.4382 9.6875 15.8356 9.6875 16.25C9.6875 16.6644 9.85212 17.0618 10.1451 17.3549C10.4382 17.6479 10.8356 17.8125 11.25 17.8125C11.4552 17.8125 11.6584 17.7721 11.8479 17.6936C12.0375 17.615 12.2098 17.4999 12.3549 17.3549C12.4999 17.2098 12.615 17.0375 12.6936 16.8479C12.7721 16.6584 12.8125 16.4552 12.8125 16.25C12.8125 16.0448 12.7721 15.8416 12.6936 15.6521C12.615 15.4625 12.4999 15.2902 12.3549 15.1451C12.2098 15.0001 12.0375 14.885 11.8479 14.8064C11.6584 14.7279 11.4552 14.6875 11.25 14.6875ZM18.75 14.6875C18.3356 14.6875 17.9382 14.8521 17.6451 15.1451C17.3521 15.4382 17.1875 15.8356 17.1875 16.25C17.1875 16.6644 17.3521 17.0618 17.6451 17.3549C17.9382 17.6479 18.3356 17.8125 18.75 17.8125C19.1644 17.8125 19.5618 17.6479 19.8549 17.3549C20.1479 17.0618 20.3125 16.6644 20.3125 16.25C20.3125 15.8356 20.1479 15.4382 19.8549 15.1451C19.5618 14.8521 19.1644 14.6875 18.75 14.6875ZM15 2.5C13.3585 2.5 11.733 2.82332 10.2165 3.45151C8.69989 4.07969 7.3219 5.00043 6.16117 6.16117C3.81696 8.50537 2.5 11.6848 2.5 15C2.5 18.3152 3.81696 21.4946 6.16117 23.8388C7.3219 24.9996 8.69989 25.9203 10.2165 26.5485C11.733 27.1767 13.3585 27.5 15 27.5C18.3152 27.5 21.4946 26.183 23.8388 23.8388C26.183 21.4946 27.5 18.3152 27.5 15C27.5 13.3585 27.1767 11.733 26.5485 10.2165C25.9203 8.69989 24.9996 7.3219 23.8388 6.16117C22.6781 5.00043 21.3001 4.07969 19.7835 3.45151C18.267 2.82332 16.6415 2.5 15 2.5ZM15 25C12.3478 25 9.8043 23.9464 7.92893 22.0711C6.05357 20.1957 5 17.6522 5 15C4.9625 14.6375 4.9625 14.2875 5 13.925C7.975 12.625 10.3375 10.2125 11.575 7.2125C13.9125 10.525 17.7125 12.5 21.775 12.5C22.725 12.5 23.6625 12.3875 24.5875 12.175C26.15 17.5 23.125 23.0375 17.825 24.5875C16.875 24.8625 15.95 25 15 25ZM0 2.5C0 1.83696 0.263392 1.20107 0.732233 0.732233C1.20107 0.263392 1.83696 0 2.5 0L7.5 0V2.5H2.5V7.5H0V2.5ZM30 27.5C30 28.163 29.7366 28.7989 29.2678 29.2678C28.7989 29.7366 28.163 30 27.5 30H22.5V27.5H27.5V22.5H30V27.5ZM2.5 30C1.83696 30 1.20107 29.7366 0.732233 29.2678C0.263392 28.7989 0 28.163 0 27.5V22.5H2.5V27.5H7.5V30H2.5ZM27.5 0C28.163 0 28.7989 0.263392 29.2678 0.732233C29.7366 1.20107 30 1.83696 30 2.5V7.5H27.5V2.5H22.5V0H27.5Z" fill="currentColor"/>
</svg>
