<svg width="27" height="30" viewBox="0 0 27 30" fill="none" xmlns="http://www.w3.org/2000/svg">
<path d="M13.4776 0.000250733C13.5272 0.000250733 13.5767 0.000250733 13.6274 0.000835752C14.4112 0.00317583 15.1734 0.040032 15.9434 0.193892C16.0204 0.209103 16.0204 0.209103 16.0986 0.224313C18.1096 0.630316 19.9773 1.43355 21.614 2.65097C21.6665 2.69017 21.7191 2.72878 21.7728 2.76915C22.1781 3.07862 22.5553 3.41676 22.9272 3.76251C22.9576 3.79059 22.9875 3.81809 23.0185 3.84675C23.496 4.29078 23.9073 4.76699 24.3001 5.28356C24.3383 5.3327 24.3383 5.3327 24.3771 5.38301C24.8104 5.94229 25.1638 6.53316 25.4939 7.15562C25.5285 7.21997 25.5285 7.21997 25.5637 7.28549C27.1873 10.3463 27.4034 13.9974 26.3689 17.2741C25.8114 18.956 24.9196 20.4332 23.7628 21.7811C23.7032 21.8531 23.6435 21.925 23.5838 21.997C23.5444 22.0414 23.505 22.0865 23.4644 22.1321C23.4447 22.1321 23.425 22.1321 23.4047 22.1321C23.4041 22.0982 23.4035 22.0642 23.4029 22.0291C23.388 21.2908 23.3367 20.6152 23.1063 19.909C23.0895 19.8552 23.0722 19.802 23.0543 19.7464C22.9254 19.3907 22.723 19.0929 22.5034 18.7835C22.4664 18.7302 22.4288 18.677 22.39 18.622C22.3518 18.5758 22.313 18.5296 22.273 18.4822C22.2109 18.3295 22.2109 18.3295 22.2855 18.1253C22.3279 18.0475 22.3715 17.9709 22.4162 17.8948C22.4622 17.81 22.5082 17.7257 22.5535 17.6415C22.5768 17.5994 22.5995 17.5573 22.6234 17.514C23.6799 15.5594 23.9097 13.031 23.345 10.8997C23.3319 10.85 23.3188 10.7997 23.3056 10.7476C22.8699 9.12596 22.0426 7.49142 20.7783 6.33659C20.4799 6.04408 20.4799 6.04408 20.3909 5.94697C19.0222 4.50139 16.92 3.7432 14.9884 3.4115C14.9287 3.40097 14.869 3.38985 14.8075 3.37874C12.8747 3.10202 10.8912 3.47643 9.13873 4.28903C9.04203 4.33349 9.04203 4.33349 8.94294 4.37912C6.6395 5.46959 4.83446 7.51424 3.98447 9.87069C3.11479 12.374 3.2079 15.1195 4.38798 17.5146C4.88699 18.4956 5.49106 19.3603 6.2736 20.143C6.3303 20.201 6.38701 20.2589 6.44371 20.3168C6.79051 20.666 6.79051 20.666 7.20297 20.9328C7.33668 21.0241 7.39697 21.0925 7.43517 21.2493C7.46322 21.4359 7.48053 21.6214 7.48829 21.8103C7.51933 22.4907 7.81301 23.0775 8.11743 23.6795C8.17354 23.7906 8.22965 23.9024 8.28516 24.0141C8.35798 24.1598 8.4308 24.306 8.50362 24.4517C8.62539 24.6951 8.74537 24.9396 8.86296 25.1853C8.894 25.2503 8.92504 25.3146 8.95727 25.3819C9.01935 25.5252 9.01935 25.5252 9.01935 25.6422C6.74157 25.324 4.24413 23.1495 2.91303 21.4324C2.86349 21.3669 2.81395 21.3008 2.765 21.2353C2.69218 21.137 2.61757 21.0405 2.54295 20.9439C0.468118 18.2207 -0.330538 14.693 0.123108 11.3467C0.425141 9.34242 1.18739 7.34517 2.39373 5.69307C2.43491 5.63691 2.4755 5.58075 2.51788 5.52283C3.33265 4.43294 4.2692 3.45596 5.37824 2.65097C5.43495 2.60944 5.49106 2.56731 5.54955 2.52402C7.10687 1.38441 8.89758 0.641432 10.7916 0.237768C10.8327 0.228993 10.8733 0.220218 10.9157 0.210858C11.7639 0.0412021 12.6139 -0.0038444 13.4776 0.000250733Z" fill="#000"/>
<path d="M14.5186 12.5123C14.974 12.8686 15.1543 13.3325 15.2277 13.8836C15.2432 14.2182 15.2414 14.5523 15.239 14.8875C15.239 14.984 15.2384 15.08 15.2384 15.1765C15.2378 15.4275 15.2366 15.679 15.2355 15.9306C15.2343 16.188 15.2337 16.4448 15.2331 16.7022C15.2319 17.2059 15.2301 17.7091 15.2277 18.2128C15.2742 18.2122 15.3214 18.2116 15.3698 18.2116C15.8156 18.2081 16.2621 18.2052 16.708 18.2034C16.9372 18.2028 17.1664 18.2016 17.3956 18.1993C17.6171 18.1975 17.8391 18.1964 18.0606 18.1958C18.1448 18.1958 18.2289 18.1952 18.3131 18.194C19.36 18.1823 20.2375 18.4122 21.0063 19.1359C21.0493 19.1786 21.0923 19.2213 21.137 19.2658C21.1716 19.3003 21.2069 19.3342 21.2427 19.3699C22.1768 20.3574 22.0419 21.7504 22.0312 22.9947C22.03 23.1298 22.0294 23.2644 22.0282 23.399C22.0258 23.6803 22.0234 23.9612 22.021 24.2425C22.0175 24.6012 22.0157 24.9592 22.0133 25.3178C22.0121 25.5957 22.0097 25.8736 22.0067 26.1515C22.0055 26.2831 22.0049 26.4153 22.0043 26.5475C21.9948 28.5693 21.9948 28.5693 21.3083 29.3094C20.7305 29.8388 20.062 29.9892 19.2956 29.9886C19.2395 29.9886 19.1834 29.9892 19.1255 29.9898C18.9416 29.9909 18.7584 29.9909 18.5745 29.9909C18.4456 29.9915 18.3167 29.9921 18.1877 29.9921C17.9185 29.9933 17.6487 29.9933 17.3795 29.9933C17.0357 29.9933 16.6919 29.995 16.3475 29.9968C16.0819 29.998 15.8162 29.9986 15.55 29.998C15.4235 29.9986 15.2969 29.9991 15.1698 29.9997C14.1533 30.0062 13.391 29.8997 12.6198 29.1965C12.2444 28.8045 12.0044 28.2956 11.7543 27.8217C11.7245 27.7661 11.6952 27.7105 11.6648 27.6532C11.3353 27.0296 11.0171 26.4007 10.6978 25.7724C10.4316 25.2488 10.166 24.7258 9.88541 24.2092C9.6747 23.8207 9.46638 23.4311 9.26224 23.0392C9.23479 22.9871 9.20673 22.9356 9.17868 22.8824C8.85754 22.2611 8.66474 21.6456 8.85157 20.9588C9.039 20.4083 9.35059 20.0521 9.84781 19.7443C10.268 19.5881 10.6865 19.5759 11.1091 19.7338C11.3777 19.8801 11.6099 20.0456 11.8253 20.2603C11.8253 20.2264 11.8253 20.1925 11.8253 20.1579C11.8277 19.3325 11.8313 18.507 11.8361 17.6816C11.8385 17.2826 11.8403 16.8836 11.8415 16.4846C11.8421 16.0991 11.8444 15.7136 11.8468 15.3286C11.848 15.1818 11.8486 15.0349 11.8486 14.8881C11.8486 14.6816 11.8504 14.4757 11.8522 14.2697C11.8516 14.1791 11.8516 14.1791 11.851 14.0872C11.8588 13.5537 12.014 13.0722 12.3626 12.6551C13.018 12.0701 13.7933 12.0361 14.5186 12.5123Z" fill="#000"/>
<path d="M18.4486 7.99534C19.8334 9.20458 20.6392 10.9766 20.7688 12.7749C20.8517 14.2749 20.4781 15.6907 19.7039 16.9842C19.6711 16.9801 19.6382 16.9766 19.6048 16.9725C18.9989 16.9099 18.3907 16.9052 17.7825 16.8929C17.6678 16.89 17.5526 16.8876 17.438 16.8853C17.1587 16.8789 16.8793 16.873 16.6 16.8672C16.5194 15.4274 16.5194 15.4274 16.9092 14.9588C17.3945 14.3364 17.37 13.398 17.3163 12.655C17.1814 11.6845 16.677 10.8075 15.8909 10.2091C15.0003 9.5901 13.9885 9.29935 12.8962 9.45496C11.9042 9.62637 11.0016 10.1172 10.3874 10.9076C9.75172 11.8383 9.49744 12.8609 9.68845 13.9742C9.8144 14.513 10.0424 15.1788 10.4519 15.5801C10.4573 15.6644 10.4591 15.7492 10.4585 15.834C10.4585 15.9147 10.4585 15.9147 10.4585 15.9972C10.4585 16.0557 10.4579 16.1142 10.4579 16.1745C10.4579 16.2342 10.4573 16.2938 10.4573 16.3553C10.4573 16.5466 10.4561 16.7379 10.4555 16.9292C10.4555 17.0585 10.4549 17.1877 10.4549 17.3176C10.4543 17.6353 10.4531 17.953 10.4519 18.2712C10.4149 18.2788 10.3785 18.287 10.3403 18.2952C10.2919 18.3057 10.2436 18.3162 10.194 18.3268C10.1218 18.3426 10.1218 18.3426 10.0484 18.3584C9.90035 18.3911 9.75471 18.4292 9.60847 18.4724C9.54042 18.4918 9.54042 18.4918 9.46999 18.5122C9.2754 18.5778 9.08916 18.6579 8.89994 18.7392C7.69957 17.7102 6.85197 16.4553 6.45264 14.9366C6.42399 14.8307 6.42399 14.8307 6.39474 14.7231C5.9793 12.9241 6.35774 10.9924 7.348 9.43741C8.45346 7.78473 10.0573 6.69952 12.0158 6.23268C12.171 6.20284 12.3244 6.18003 12.4814 6.16131C12.5339 6.15487 12.5858 6.14844 12.6395 6.142C14.8206 5.91209 16.8059 6.60592 18.4486 7.99534Z" fill="#000"/>
</svg>
