<svg width="75" height="23" viewBox="0 0 75 23" fill="none" xmlns="http://www.w3.org/2000/svg">
<path d="M14.6463 1.50116L10.3044 17.9043H9.35891L4.67095 1.50116H0L6.12707 21.5598H13.4644L19.1528 1.50116H14.6463Z" fill="#3A0751"/>
<path d="M28.4607 22.1081C26.6471 22.1081 25.0681 21.7867 23.7216 21.1456C22.3752 20.5045 21.2632 19.6668 20.3839 18.6324C19.5045 17.5979 18.8446 16.4803 18.4058 15.2795C17.9671 14.0805 17.7458 12.9119 17.7458 11.7753V11.1702C17.7458 9.92397 17.9709 8.69288 18.4191 7.47503C18.8673 6.25718 19.5462 5.1528 20.452 4.16377C21.3578 3.17474 22.4754 2.38238 23.8048 1.78669C25.1324 1.191 26.6849 0.894104 28.4626 0.894104C30.2402 0.894104 31.7681 1.19289 33.107 1.78669C34.444 2.38238 35.5616 3.17474 36.4599 4.16377C37.3563 5.1528 38.0352 6.25718 38.4928 7.47503C38.9504 8.69288 39.1793 9.92586 39.1793 11.1702V11.7753C39.1793 12.9119 38.9599 14.0787 38.5193 15.2795C38.0805 16.4803 37.4206 17.5979 36.5412 18.6324C35.6619 19.6668 34.548 20.5064 33.2035 21.1456C31.857 21.7867 30.2761 22.1081 28.4626 22.1081H28.4607ZM28.4607 17.8759C29.4138 17.8759 30.2704 17.7114 31.0306 17.3805C31.7908 17.0514 32.4357 16.5938 32.9671 16.0057C33.4985 15.4194 33.9051 14.7424 34.1906 13.9728C34.4743 13.2031 34.6161 12.3786 34.6161 11.4992C34.6161 10.565 34.4743 9.70839 34.1906 8.92927C33.9069 8.15014 33.4947 7.47692 32.9538 6.9096C32.413 6.34228 31.7625 5.90166 31.0023 5.59153C30.242 5.2795 29.3948 5.12443 28.4607 5.12443C27.5265 5.12443 26.6566 5.2795 25.9058 5.59153C25.1551 5.90355 24.5083 6.34228 23.9694 6.9096C23.4285 7.47692 23.0219 8.15014 22.7458 8.92927C22.4716 9.70839 22.3336 10.565 22.3336 11.4992C22.3336 12.3786 22.4716 13.2031 22.7458 13.9728C23.02 14.7424 23.4285 15.4194 23.9694 16.0057C24.5102 16.5919 25.1551 17.0495 25.9058 17.3805C26.6566 17.7095 27.5095 17.8759 28.4607 17.8759Z" fill="#3A0751"/>
<path d="M37.5264 21.5598L44.3286 1.50116H49.4496L42.7495 21.5598H37.5264Z" fill="#3A0751"/>
<path d="M74.3608 21.5597L69.9433 15.4856C70.7999 14.9882 71.4883 14.3018 72.0102 13.5359C72.6796 12.5563 73.0125 11.3234 73.0125 9.84075V8.23334C73.0125 6.74885 72.6834 5.50831 72.0234 4.50982C71.3635 3.51134 70.4198 2.76058 69.1925 2.25567C67.9652 1.75264 66.5185 1.49924 64.8506 1.49924H50.3215L43.699 21.5578H48.2054L49.7958 16.5843H64.8563C65.1267 16.5843 65.3896 16.5749 65.6505 16.5635L69.1377 21.5578H74.3589L74.3608 21.5597ZM50.9947 12.8494L53.438 5.21141H54.4516L57.0726 12.8494H50.9928H50.9947ZM61.7095 12.9175L58.9788 5.3192H65.2099C65.8699 5.3192 66.4372 5.45158 66.9138 5.71822C67.3903 5.98486 67.7647 6.35929 68.0408 6.8453C68.315 7.3313 68.4531 9.07109 68.4531 9.73107C68.4531 10.3532 68.315 10.9092 68.0408 11.3933C67.7666 11.8793 67.3903 12.2538 66.9138 12.5204C66.4372 12.787 65.8699 12.9194 65.2099 12.9194H61.7095V12.9175Z" fill="#3A0751"/>
</svg>
