<svg width="88" height="25" viewBox="0 0 88 25" fill="none" xmlns="http://www.w3.org/2000/svg">
<path d="M17.2617 0.713135L12.1445 20.0454H11.0301L5.50504 0.713135H0L7.22118 24.3536H15.8688L22.5729 0.713135H17.2617Z" fill="white"/>
<path d="M33.5432 24.9999C31.4058 24.9999 29.5448 24.621 27.9579 23.8655C26.371 23.1099 25.0605 22.1226 24.0242 20.9035C22.9878 19.6843 22.2099 18.3671 21.6929 16.9519C21.1758 15.5388 20.915 14.1615 20.915 12.822V12.1088C20.915 10.64 21.1803 9.18909 21.7085 7.75377C22.2367 6.31844 23.0368 5.01685 24.1044 3.85121C25.172 2.68557 26.4892 1.75171 28.056 1.04966C29.6206 0.347596 31.4504 -0.00231934 33.5454 -0.00231934C35.6405 -0.00231934 37.4413 0.349825 39.0193 1.04966C40.595 1.75171 41.9122 2.68557 42.9708 3.85121C44.0273 5.01685 44.8274 6.31844 45.3668 7.75377C45.9061 9.18909 46.1758 10.6422 46.1758 12.1088V12.822C46.1758 14.1615 45.9173 15.5366 45.398 16.9519C44.8809 18.3671 44.1031 19.6843 43.0667 20.9035C42.0303 22.1226 40.7176 23.1122 39.1329 23.8655C37.546 24.621 35.6828 24.9999 33.5454 24.9999H33.5432ZM33.5432 20.0119C34.6665 20.0119 35.6761 19.818 36.5721 19.428C37.468 19.0402 38.228 18.5008 38.8543 17.8077C39.4806 17.1168 39.9598 16.3189 40.2963 15.4118C40.6307 14.5047 40.7978 13.5329 40.7978 12.4966C40.7978 11.3956 40.6307 10.3859 40.2963 9.46768C39.962 8.54943 39.4762 7.75599 38.8387 7.08737C38.2013 6.41874 37.4346 5.89944 36.5386 5.53392C35.6427 5.16618 34.6442 4.98342 33.5432 4.98342C32.4422 4.98342 31.417 5.16618 30.5321 5.53392C29.6473 5.90167 28.8851 6.41874 28.2499 7.08737C27.6125 7.75599 27.1333 8.54943 26.8079 9.46768C26.4847 10.3859 26.322 11.3956 26.322 12.4966C26.322 13.5329 26.4847 14.5047 26.8079 15.4118C27.1311 16.3189 27.6125 17.1168 28.2499 17.8077C28.8873 18.4986 29.6473 19.038 30.5321 19.428C31.417 19.8158 32.4221 20.0119 33.5432 20.0119Z" fill="white"/>
<path d="M44.2275 24.3536L52.2444 0.713135H58.2799L50.3834 24.3536H44.2275Z" fill="white"/>
<path d="M87.6391 24.3536L82.4327 17.1948C83.4423 16.6086 84.2536 15.7996 84.8687 14.8969C85.6577 13.7424 86.05 12.2893 86.05 10.5419V8.64749C86.05 6.89791 85.6622 5.43585 84.8843 4.25906C84.1065 3.08228 82.9943 2.19746 81.5479 1.60238C80.1014 1.00953 78.3964 0.710876 76.4306 0.710876H59.3071L51.502 24.3513H56.8131L58.6875 18.4897H76.4373C76.756 18.4897 77.0658 18.4785 77.3734 18.4652L81.4832 24.3513H87.6368L87.6391 24.3536ZM60.1005 14.0879L62.9801 5.08593H64.1747L67.2637 14.0879H60.0983H60.1005ZM72.7287 14.1681L69.5103 5.21297H76.8541C77.6319 5.21297 78.3006 5.36898 78.8622 5.68324C79.4239 5.9975 79.8652 6.43879 80.1905 7.01158C80.5137 7.58437 80.6764 9.63483 80.6764 10.4127C80.6764 11.1459 80.5137 11.8012 80.1905 12.3717C79.8674 12.9445 79.4239 13.3858 78.8622 13.7001C78.3006 14.0143 77.6319 14.1704 76.8541 14.1704H72.7287V14.1681Z" fill="white"/>
</svg>
