<svg width="39" height="40" viewBox="0 0 39 40" fill="none" xmlns="http://www.w3.org/2000/svg">
<path d="M19.1939 11.8367C21.2867 11.8367 23.2939 12.6681 24.7738 14.148C26.2536 15.6278 27.085 17.635 27.085 19.7278C27.085 21.8207 26.2536 23.8278 24.7738 25.3077C23.2939 26.7876 21.2867 27.619 19.1939 27.619C17.101 27.619 15.0939 26.7876 13.614 25.3077C12.1341 23.8278 11.3027 21.8207 11.3027 19.7278C11.3027 17.635 12.1341 15.6278 13.614 14.148C15.0939 12.6681 17.101 11.8367 19.1939 11.8367ZM19.1939 15.7823C18.1474 15.7823 17.1439 16.198 16.4039 16.9379C15.664 17.6778 15.2483 18.6814 15.2483 19.7278C15.2483 20.7743 15.664 21.7778 16.4039 22.5178C17.1439 23.2577 18.1474 23.6734 19.1939 23.6734C20.2403 23.6734 21.2439 23.2577 21.9838 22.5178C22.7238 21.7778 23.1394 20.7743 23.1394 19.7278C23.1394 18.6814 22.7238 17.6778 21.9838 16.9379C21.2439 16.198 20.2403 15.7823 19.1939 15.7823ZM15.2483 39.4557C14.7551 39.4557 14.3408 39.1006 14.2619 38.6271L13.7193 34.7405C13.6035 33.9114 13.0427 33.2236 12.3047 32.8285C11.9531 32.6404 11.6141 32.4372 11.2833 32.2207C10.5921 31.7684 9.72759 31.637 8.96209 31.9475L5.28574 33.4387C4.85173 33.5965 4.31908 33.4387 4.08235 33.0047L0.136776 26.1789C-0.119686 25.7448 -0.00131842 25.2122 0.373511 24.9163L3.5652 22.4053C4.17232 21.9276 4.50277 21.1798 4.44717 20.4093L4.40989 19.8928C4.40197 19.783 4.40185 19.6727 4.40954 19.5629L4.44913 18.9973C4.50345 18.2213 4.16626 17.4694 3.55058 16.9937L0.373511 14.5394C-0.00131842 14.2435 -0.119686 13.7109 0.136776 13.2768L4.08235 6.45101C4.31908 6.01699 4.85173 5.83944 5.28574 6.01699L8.98271 7.50172C9.73723 7.80474 10.5877 7.68019 11.27 7.23805C11.6049 7.02108 11.9482 6.81644 12.3043 6.62655C13.043 6.23267 13.6035 5.54425 13.7193 4.71519L14.2619 0.82857C14.3408 0.355101 14.7551 0 15.2483 0H23.1394C23.6326 0 24.0469 0.355101 24.1258 0.82857L24.6685 4.71519C24.7843 5.54425 25.3448 6.23267 26.0834 6.62655C26.4395 6.81644 26.7829 7.02108 27.1177 7.23805C27.8001 7.68019 28.6505 7.80474 29.405 7.50172L33.102 6.01699C33.536 5.83944 34.0687 6.01699 34.3054 6.45101L38.251 13.2768C38.5074 13.7109 38.3891 14.2435 38.0142 14.5394L34.8372 16.9937C34.2215 17.4694 33.8843 18.2213 33.9386 18.9973L33.9898 19.7278L33.9386 20.4583C33.8843 21.2344 34.2215 21.9863 34.8372 22.4619L38.0142 24.9163C38.3891 25.2122 38.5074 25.7448 38.251 26.1789L34.3054 33.0047C34.0687 33.4387 33.536 33.6163 33.102 33.4387L29.405 31.954C28.6505 31.651 27.8001 31.7755 27.1177 32.2176C26.7829 32.4346 26.4395 32.6393 26.0834 32.8292C25.3448 33.223 24.7843 33.9114 24.6685 34.7405L24.1258 38.6271C24.0469 39.1006 23.6326 39.4557 23.1394 39.4557H15.2483ZM19.1935 3.94557C18.345 3.94557 17.6258 4.56999 17.5067 5.41012L17.2137 7.47672C17.0761 8.44751 16.3347 9.20499 15.4158 9.54706C14.2402 9.98468 13.1604 10.6193 12.2199 11.4102C11.443 12.0636 10.3732 12.3327 9.44122 11.9305L7.60783 11.1393C6.83516 10.8059 5.93524 11.1042 5.5147 11.8331C5.09239 12.5651 5.28819 13.4976 5.96927 13.9979L7.55874 15.1655C8.37796 15.7673 8.68638 16.8284 8.51014 17.8295C8.28882 19.0866 8.28804 20.3717 8.50779 21.6235C8.68382 22.6262 8.37692 23.6898 7.55693 24.2932L5.95014 25.4756C5.26858 25.9771 5.07292 26.9108 5.49578 27.6437C5.91618 28.3724 6.81495 28.6718 7.58836 28.3408L9.47302 27.5342C10.3994 27.1377 11.4606 27.403 12.2326 28.0506C13.1626 28.8306 14.2262 29.459 15.3834 29.8901C16.3077 30.2345 17.0569 30.9946 17.1948 31.9713L17.4848 34.0251C17.6051 34.8769 18.3341 35.5101 19.1943 35.5101C20.0541 35.5101 20.7829 34.8774 20.9036 34.026L21.1942 31.9761C21.3316 31.0067 22.0712 30.25 22.9877 29.9054C24.1514 29.4678 25.2208 28.8351 26.1553 28.0507C26.9271 27.4028 27.9883 27.1377 28.9147 27.5342L30.8015 28.3417C31.5737 28.6722 32.4711 28.3733 32.8908 27.6457C33.314 26.9122 33.1167 25.9777 32.4331 25.4779L30.8346 24.3092C30.0124 23.7081 29.7021 22.645 29.8783 21.6419C30.0997 20.3809 30.0995 19.0905 29.8776 17.8295C29.7014 16.8284 30.0098 15.7673 30.829 15.1655L32.4185 13.9979C33.0996 13.4976 33.2954 12.5651 32.8731 11.8331C32.4525 11.1042 31.5526 10.8059 30.7799 11.1393L28.9465 11.9305C28.0146 12.3327 26.9448 12.0634 26.1677 11.4104C25.2317 10.6239 24.1577 9.99351 22.9886 9.56227C22.0618 9.22043 21.311 8.45968 21.1728 7.48161L20.8804 5.41101C20.7617 4.57048 20.0424 3.94557 19.1935 3.94557Z" fill="#D0D0D0"/>
</svg>
