<svg width="42" height="40" viewBox="0 0 42 40" fill="none" xmlns="http://www.w3.org/2000/svg">
<path d="M13.2128 25.1424C14.649 26.5786 16.597 27.3855 18.6282 27.3855V23.5562C17.6126 23.5562 16.6386 23.1528 15.9205 22.4347C15.2024 21.7165 14.7989 20.7425 14.7989 19.7269C14.7989 18.7113 15.2024 17.7374 15.9205 17.0192C16.6386 16.3011 17.6126 15.8977 18.6282 15.8977V12.0684C16.597 12.0684 14.649 12.8752 13.2128 14.3115C11.7765 15.7478 10.9696 17.6958 10.9696 19.7269C10.9696 21.7581 11.7765 23.7061 13.2128 25.1424Z" fill="#D0D0D0"/>
<path d="M14.7989 38.8734C14.3203 38.8734 13.9182 38.5287 13.8416 38.0692L13.3149 34.2972C13.2026 33.4925 12.6583 32.8249 11.942 32.4415C11.6009 32.2589 11.2718 32.0617 10.9508 31.8516C10.2799 31.4126 9.4409 31.2851 8.69796 31.5865L5.12996 33.0337C4.70874 33.1869 4.19179 33.0337 3.96203 32.6125L0.132745 25.9878C-0.116158 25.5666 -0.00127956 25.0496 0.362503 24.7625L3.46013 22.3255C4.04936 21.8619 4.37007 21.1361 4.3161 20.3883L4.27993 19.887C4.27224 19.7804 4.27212 19.6734 4.27958 19.5668L4.318 19.018C4.37073 18.2647 4.04347 17.535 3.44594 17.0734L0.362503 14.6914C-0.00127956 14.4042 -0.116158 13.8873 0.132745 13.4661L3.96203 6.84139C4.19179 6.42017 4.70874 6.24785 5.12996 6.42017L8.71797 7.86114C9.45025 8.15522 10.2756 8.03435 10.9379 7.60523C11.2629 7.39466 11.5961 7.19605 11.9417 7.01176C12.6586 6.62948 13.2026 5.96136 13.3149 5.15673L13.8416 1.38466C13.9182 0.925141 14.3203 0.580505 14.7989 0.580505H18.6282H20.3112C20.4141 0.580505 20.4976 0.663933 20.4976 0.766847V4.22345C20.4976 4.32636 20.4141 4.40979 20.3112 4.40979H18.6282C17.8045 4.40979 17.1063 5.01597 16.9907 5.83156L16.7064 7.83687C16.5728 8.77905 15.8533 9.51421 14.9615 9.8462C13.8205 10.2709 12.7725 10.8868 11.8597 11.6545C11.1058 12.2885 10.0675 12.5497 9.16297 12.1594L7.38362 11.3915C6.63371 11.0679 5.76032 11.3574 5.35217 12.0649C4.9423 12.7753 5.13234 13.6803 5.79334 14.1659L7.33597 15.2991C8.13105 15.8832 8.43038 16.913 8.25933 17.8846C8.04453 19.1046 8.04378 20.3518 8.25705 21.5667C8.42789 22.5399 8.13004 23.5721 7.33421 24.1577L5.77478 25.3053C5.11331 25.792 4.92341 26.6982 5.33381 27.4095C5.74182 28.1167 6.6141 28.4073 7.36471 28.0861L9.19383 27.3032C10.0929 26.9184 11.1228 27.1759 11.8721 27.8044C12.7747 28.5614 13.8069 29.1713 14.93 29.5897C15.8271 29.924 16.5542 30.6616 16.688 31.6096L16.9696 33.6033C17.0863 34.4297 17.7936 35.0441 18.6282 35.0441L20.3122 35.0527C20.4147 35.0532 20.4976 35.1365 20.4976 35.2391V38.687C20.4976 38.7899 20.4141 38.8734 20.3112 38.8734H18.6282H14.7989Z" fill="#D0D0D0"/>
<path d="M22.3594 19.9575H36.6623M22.3594 12.7808H29.536C30.593 12.7808 31.4498 11.924 31.4498 10.867V5.36493" stroke="#D0D0D0" stroke-width="0.931707" stroke-linejoin="round"/>
<path d="M29.5877 34.7893V29.2872C29.5877 28.2302 28.7308 27.3734 27.6739 27.3734H19.5654" stroke="#D0D0D0" stroke-width="0.931707" stroke-linejoin="round"/>
<circle cx="31.4517" cy="3.45114" r="2.87067" fill="#D0D0D0"/>
<circle cx="38.5767" cy="20.1967" r="2.87067" fill="#D0D0D0"/>
<circle cx="29.5875" cy="36.9422" r="2.87067" fill="#D0D0D0"/>
<path d="M18.6338 0.580475H21.4289C21.9435 0.580475 22.3606 0.997614 22.3606 1.51218V37.9378C22.3606 38.4524 21.9435 38.8695 21.4289 38.8695H18.6338V0.580475Z" fill="#D0D0D0"/>
</svg>
