<svg width="32" height="32" viewBox="0 0 32 32" fill="none" xmlns="http://www.w3.org/2000/svg">
<path fill-rule="evenodd" clip-rule="evenodd" d="M4.58376 12.2955L7.11968 11.6581C12.8328 10.2221 18.8098 10.1999 24.5335 11.5933L27.4178 12.2955L27.7518 17.4878L26.3327 17.6994C22.5238 18.2673 19.5481 21.2182 18.9033 24.9572C18.8603 25.2065 18.8276 25.4593 18.8058 25.7151L18.6425 27.6295L13.2305 27.643L13.141 26.211C12.8846 22.1113 9.84583 18.7244 5.79777 18.0267L3.9043 17.7004L4.58376 12.2955ZM16.0003 18.5506C17.409 18.5506 18.5509 17.4086 18.5509 16C18.5509 14.5913 17.409 13.4493 16.0003 13.4493C14.5916 13.4493 13.4497 14.5913 13.4497 16C13.4497 17.4086 14.5916 18.5506 16.0003 18.5506Z" fill="#573266" stroke="#573266" stroke-width="0.912245"/>
<path fill-rule="evenodd" clip-rule="evenodd" d="M16 31C24.2843 31 31 24.2843 31 16C31 7.71573 24.2843 1 16 1C7.71573 1 1 7.71573 1 16C1 24.2843 7.71573 31 16 31ZM16.0004 3.4595C9.07444 3.4595 3.45987 9.07407 3.45987 16C3.45987 22.9259 9.07444 28.5405 16.0004 28.5405C22.9263 28.5405 28.5408 22.9259 28.5408 16C28.5408 9.07407 22.9263 3.4595 16.0004 3.4595Z" fill="#573266" stroke="#573266" stroke-width="0.912245"/>
</svg>
