<svg width="30" height="32" viewBox="0 0 30 32" fill="none" xmlns="http://www.w3.org/2000/svg">
<path d="M19.8627 14.7131C23.541 14.7131 26.4836 17.6557 26.4836 21.334C26.4836 22.6287 26.1157 23.8499 25.4684 24.8651L30 29.4262L27.9549 31.4713L23.3644 26.9544C22.3492 27.5871 21.1427 27.9549 19.8627 27.9549C16.1844 27.9549 13.2418 25.0123 13.2418 21.334C13.2418 17.6557 16.1844 14.7131 19.8627 14.7131ZM19.8627 17.6557C18.8871 17.6557 17.9516 18.0432 17.2617 18.7331C16.5719 19.4229 16.1844 20.3584 16.1844 21.334C16.1844 22.3095 16.5719 23.2451 17.2617 23.9349C17.9516 24.6247 18.8871 25.0123 19.8627 25.0123C20.8382 25.0123 21.7738 24.6247 22.4636 23.9349C23.1534 23.2451 23.541 22.3095 23.541 21.334C23.541 20.3584 23.1534 19.4229 22.4636 18.7331C21.7738 18.0432 20.8382 17.6557 19.8627 17.6557ZM17.6557 6.04708L8.82786 2.94262V20.4365L10.2992 20.9514V21.334C10.2992 22.2756 10.4316 23.1878 10.6817 24.0412L9.06493 23.4766C8.91191 23.4232 8.74485 23.426 8.59372 23.4846L0.971064 26.4394L0.735655 26.4836C0.540547 26.4836 0.35343 26.4061 0.215468 26.2681C0.0775064 26.1301 0 25.943 0 25.7479V3.50172C0 3.16332 0.220696 2.89848 0.529671 2.79549L8.60596 0.0747541C8.74977 0.0263068 8.90563 0.0272213 9.04887 0.077353L17.4167 3.00608C17.5709 3.06006 17.7394 3.05686 17.8914 2.99706L25.5125 0H25.7479C25.943 0 26.1301 0.0775064 26.2681 0.215468C26.4061 0.35343 26.4836 0.540547 26.4836 0.735655V14.4335C24.7621 12.7857 22.4375 11.7705 19.8627 11.7705C19.127 11.7705 18.3914 11.8588 17.6557 12.0206V6.04708Z" fill="#573266"/>
</svg>
