<svg width="36" height="40" viewBox="0 0 36 40" fill="none" xmlns="http://www.w3.org/2000/svg">
<path d="M32 4H31C30.4477 4 30 3.55228 30 3V1C30 0.447715 29.5523 0 29 0H27C26.4477 0 26 0.447715 26 1V3C26 3.55228 25.5523 4 25 4H11C10.4477 4 10 3.55228 10 3V1C10 0.447715 9.55229 0 9 0H7C6.44772 0 6 0.447715 6 1V3C6 3.55228 5.55228 4 5 4H4C1.8 4 0 5.8 0 8V36C0 38.22 1.8 40 4 40H32C34.22 40 36 38.22 36 36V8C36 5.8 34.22 4 32 4ZM32 35C32 35.5523 31.5523 36 31 36H5C4.44771 36 4 35.5523 4 35V17C4 16.4477 4.44772 16 5 16H31C31.5523 16 32 16.4477 32 17V35ZM5 12C4.44771 12 4 11.5523 4 11V9C4 8.44771 4.44772 8 5 8H31C31.5523 8 32 8.44771 32 9V11C32 11.5523 31.5523 12 31 12H5ZM8 21C8 20.4477 8.44771 20 9 20H27C27.5523 20 28 20.4477 28 21V23C28 23.5523 27.5523 24 27 24H9C8.44772 24 8 23.5523 8 23V21ZM8 29C8 28.4477 8.44772 28 9 28H21C21.5523 28 22 28.4477 22 29V31C22 31.5523 21.5523 32 21 32H9C8.44772 32 8 31.5523 8 31V29Z" fill="#D0D0D0"/>
</svg>
